<?xml version="1.0" standalone="no"?>
<!DOCTYPE svg PUBLIC "-//W3C//DTD SVG 20010904//EN"
 "http://www.w3.org/TR/2001/REC-SVG-20010904/DTD/svg10.dtd">
<svg version="1.0" xmlns="http://www.w3.org/2000/svg"
 width="160.000000pt" height="160.000000pt" viewBox="0 0 160.000000 160.000000"
 preserveAspectRatio="xMidYMid meet">
<metadata>
Created by potrace 1.11, written by Peter Selinger 2001-2013
</metadata>
<g transform="translate(0.000000,160.000000) scale(0.100000,-0.100000)"
fill="#000000" stroke="none">
<path d="M386 1574 c-3 -9 -4 -20 0 -25 3 -5 2 -14 -1 -19 -3 -6 -18 3 -32 20
-13 17 -29 27 -35 24 -6 -4 -9 -38 -6 -85 l4 -78 -42 -16 c-23 -9 -60 -34 -81
-56 -35 -36 -42 -39 -94 -39 -36 0 -61 -5 -68 -14 -20 -24 9 -139 43 -167 11
-9 48 -24 83 -34 43 -13 72 -28 87 -46 23 -27 100 -227 109 -285 14 -82 38
-140 81 -191 21 -25 23 -33 13 -53 -7 -13 -39 -40 -72 -59 -150 -86 -178 -116
-169 -181 9 -63 67 -113 104 -90 13 8 6 76 -11 96 -13 16 -3 34 19 34 19 1
229 53 252 64 13 5 20 -8 37 -61 12 -37 27 -94 34 -127 13 -58 13 -59 -15 -82
-15 -14 -29 -35 -32 -48 -4 -22 0 -25 28 -28 33 -4 87 16 100 36 5 6 8 87 7
180 0 129 -4 176 -15 198 -12 23 -12 29 -2 32 31 9 214 58 222 60 8 1 14 -15
31 -74 2 -8 14 -42 26 -75 16 -48 20 -75 15 -135 -7 -105 -22 -147 -58 -159
-46 -16 -32 -48 26 -55 62 -8 81 8 104 83 62 203 82 276 82 294 0 18 3 17 28
-8 15 -15 53 -45 85 -67 66 -45 81 -65 102 -134 27 -91 28 -118 5 -139 -19
-18 -28 -54 -12 -56 4 -1 29 -3 55 -4 77 -2 79 14 36 315 -7 52 -22 104 -38
135 -24 47 -26 59 -27 195 0 83 -6 167 -13 198 -17 69 -10 93 36 117 46 25
115 91 136 130 54 105 15 231 -86 278 -70 34 -173 26 -239 -18 -86 -57 -104
-183 -33 -229 29 -19 37 -11 29 30 -7 40 8 69 46 89 62 32 151 8 166 -44 12
-45 12 -50 1 -87 -12 -38 -45 -69 -112 -102 -37 -19 -45 -19 -101 -7 -62 13
-105 12 -199 -5 -27 -5 -97 -8 -155 -6 -186 4 -236 45 -309 252 -18 49 -43
105 -56 124 -13 19 -26 48 -29 63 -7 40 -63 157 -74 157 -6 0 -13 -7 -16 -16z"/>
</g>
</svg>
